<svg width="21" height="21" viewBox="0 0 21 21" fill="none" xmlns="http://www.w3.org/2000/svg">
<g clip-path="url(#clip0)">
<path d="M18.4364 2.50931H2.56797C1.15146 2.50931 0 3.66077 0 5.07728V15.9227C0 17.3392 1.15146 18.4907 2.56797 18.4907H18.432C19.8485 18.4907 21 17.3392 21 15.9227V5.08162C21.0043 3.66511 19.8529 2.50931 18.4364 2.50931ZM19.8312 15.9227C19.8312 16.6918 19.2055 17.3175 18.4364 17.3175H2.56797C1.79888 17.3175 1.17318 16.6918 1.17318 15.9227V5.08162C1.17318 4.31254 1.79888 3.68684 2.56797 3.68684H18.432C19.2011 3.68684 19.8268 4.31254 19.8268 5.08162V15.9227H19.8312Z" fill="#63617F"/>
<path d="M13.2377 10.3653L18.3736 5.75945C18.6126 5.5422 18.6343 5.17286 18.4171 4.92953C18.1998 4.69055 17.8305 4.66883 17.5872 4.88608L10.5046 11.243L9.12286 10.009C9.11852 10.0046 9.11417 10.0003 9.11417 9.99595C9.08375 9.96554 9.05334 9.93946 9.01858 9.91339L3.39598 4.88174C3.15266 4.66448 2.78332 4.68621 2.56606 4.92953C2.34881 5.17286 2.37053 5.5422 2.61386 5.75945L7.81063 10.4044L2.63559 15.2492C2.40095 15.4708 2.38791 15.8401 2.60951 16.0791C2.72683 16.2008 2.88326 16.266 3.03968 16.266C3.18307 16.266 3.32646 16.2138 3.43943 16.1095L8.69269 11.1952L10.1179 12.4683C10.2309 12.5683 10.3699 12.6161 10.509 12.6161C10.648 12.6161 10.7914 12.5639 10.9 12.464L12.3643 11.1518L17.5872 16.1139C17.7001 16.2225 17.8479 16.2747 17.9913 16.2747C18.1477 16.2747 18.2998 16.2138 18.4171 16.0922C18.6387 15.8575 18.63 15.4838 18.3954 15.2622L13.2377 10.3653Z" fill="#63617F"/>
</g>
<defs>
<clipPath id="clip0">
<rect width="21" height="21" fill="white" transform="matrix(-1 0 0 1 21 0)"/>
</clipPath>
</defs>
</svg>
