<svg width="18" height="18" viewBox="0 0 18 18" fill="none" xmlns="http://www.w3.org/2000/svg">
<g clip-path="url(#clip0)">
<path d="M9.00002 18C13.9706 18 18 13.9706 18 9.00002C18 4.02945 13.9706 0 9.00002 0C4.02945 0 0 4.02945 0 9.00002C0 13.9706 4.02945 18 9.00002 18Z" fill="#A9BACE"/>
<path d="M14.9079 9.00598C14.9079 12.2691 12.2625 14.9142 8.99945 14.9142C5.73653 14.9142 3.09125 12.2691 3.09125 9.00598H14.9079Z" fill="white"/>
<path d="M6.26434 7.30903C7.04498 7.30903 7.67781 6.6762 7.67781 5.89556C7.67781 5.11492 7.04498 4.48209 6.26434 4.48209C5.4837 4.48209 4.85087 5.11492 4.85087 5.89556C4.85087 6.6762 5.4837 7.30903 6.26434 7.30903Z" fill="white"/>
<path d="M11.6092 7.30903C12.3898 7.30903 13.0227 6.6762 13.0227 5.89556C13.0227 5.11492 12.3898 4.48209 11.6092 4.48209C10.8285 4.48209 10.1957 5.11492 10.1957 5.89556C10.1957 6.6762 10.8285 7.30903 11.6092 7.30903Z" fill="white"/>
</g>
<defs>
<clipPath id="clip0">
<rect width="18" height="18" fill="white"/>
</clipPath>
</defs>
</svg>
