<svg width="524" height="362" viewBox="0 0 524 362" fill="none" xmlns="http://www.w3.org/2000/svg">
<g clip-path="url(#clip0)">
<path opacity="0.1" d="M296.39 49.2849C262.802 49.3298 230.472 39.802 199.549 29.2175C168.626 18.633 137.941 6.78048 104.978 1.75801C83.7783 -1.4704 59.6715 -1.17364 43.1001 10.5485C27.1487 21.8254 22.5296 40.4899 20.3009 57.7336C18.6249 70.7057 17.852 84.3208 24.1292 96.1867C28.4877 104.424 35.9467 111.214 41.2039 119.064C59.5547 146.375 48.5191 181.263 30.685 209.208C22.3229 222.32 12.5274 234.887 6.20526 248.749C-0.116868 262.612 -2.70953 278.331 3.73842 292.014C10.128 305.575 24.5606 315.417 40.0491 322.139C71.5025 335.817 108.123 338.749 143.76 339.878C222.645 342.382 301.683 337.274 380.51 332.166C409.68 330.278 438.981 328.376 467.55 322.904C483.412 319.869 499.745 315.363 510.992 305.489C525.267 292.953 528.188 272.486 517.799 257.774C500.379 233.097 454.443 228.444 441.952 201.744C435.063 187.045 441.003 170.188 449.752 156.02C468.516 125.62 500.814 98.39 501.358 64.3883C501.731 41.0385 484.935 18.2598 459.849 8.11141C433.554 -2.51806 397.701 0.215745 379.278 20.0268C360.334 40.436 326.046 49.2534 296.39 49.2849Z" fill="#6C63FF"/>
<path d="M445.978 290.179C445.978 290.179 440.455 286.533 434.982 289.127C434.982 289.127 436.667 292.373 443.596 292.068L445.978 290.179Z" fill="#6C63FF"/>
<path d="M446.679 290.372C446.679 290.372 448.359 296.775 444.144 301.132C444.144 301.132 441.61 298.493 444.144 292.027L446.679 290.372Z" fill="#6C63FF"/>
<path d="M453.544 284.226C453.544 284.226 453.136 278.781 440.846 280.588C440.846 280.588 440.788 284.1 445.101 285.764C449.415 287.427 451.392 286.024 453.544 284.226Z" fill="#6C63FF"/>
<path d="M454.317 284.19C454.317 284.19 459.512 285.858 454.879 297.391C454.879 297.391 451.451 296.627 450.835 292.036C450.219 287.445 452.044 285.863 454.317 284.19Z" fill="#6C63FF"/>
<path d="M461.255 276.465C461.255 276.465 461.96 267.504 449.402 268.421C449.402 268.421 448.503 276.515 459.04 278.619L461.255 276.465Z" fill="#6C63FF"/>
<path d="M469.554 266.348C469.554 266.348 467.833 256.191 455.279 259.217C455.279 259.217 455.234 267.998 467.505 268.767L469.554 266.348Z" fill="#6C63FF"/>
<path d="M475.62 255.89C475.62 255.89 472.735 245.998 460.298 248.956C460.298 248.956 463.259 257.855 474.793 257.715L475.62 255.89Z" fill="#6C63FF"/>
<path d="M481.381 245.674C481.381 245.674 478.563 235.409 466.553 238.48C466.553 238.48 470.561 248.232 480.585 247.409L481.381 245.674Z" fill="#6C63FF"/>
<path d="M485.092 235.971C485.092 235.971 482.926 223.417 471.729 226.195C471.729 226.195 474.982 237.616 484.27 237.801L485.092 235.971Z" fill="#6C63FF"/>
<path d="M488.574 224.249C488.574 224.249 485.973 211.596 474.645 215.256C474.645 215.256 479.084 227.216 487.77 225.98L488.574 224.249Z" fill="#6C63FF"/>
<path d="M490.713 213.34C490.713 213.34 486.584 200.683 477.826 201.025C477.826 201.025 482.046 214.392 489.981 215.863L490.713 213.34Z" fill="#6C63FF"/>
<path d="M492.097 202.693C492.097 202.693 487.604 187.459 480.477 188.633C480.477 188.633 483.587 200.278 491.846 205.067L492.097 202.693Z" fill="#6C63FF"/>
<path d="M492.879 189.991C492.879 189.991 488.664 177.297 481.646 176.789C481.646 176.789 484.513 189.28 492.74 193.291L492.879 189.991Z" fill="#6C63FF"/>
<path d="M493.728 178.138C493.728 178.138 488.476 165.431 483.843 165.143C483.843 165.143 486.126 177.657 493.279 180.224L493.728 178.138Z" fill="#6C63FF"/>
<path d="M494.308 167.113C494.308 167.113 491.077 153.313 486.436 152.167C486.436 152.167 487.069 163.457 493.841 168.147L494.308 167.113Z" fill="#6C63FF"/>
<path d="M496.06 152.67C496.06 152.67 492.663 141.668 488.902 139.991C488.902 139.991 489.644 152.963 495.193 155.359L496.06 152.67Z" fill="#6C63FF"/>
<path d="M497.512 143.228L498.195 123.831C498.195 123.831 491.163 138.453 497.004 146.632L497.512 143.228Z" fill="#6C63FF"/>
<path d="M502.94 123.934C502.94 123.934 508.004 109.77 509.23 108.979C509.23 108.979 499.3 118.17 500.271 129.991L502.94 123.934Z" fill="#6C63FF"/>
<path d="M461.596 276.398C461.596 276.398 470.502 275.233 470.237 287.827C470.237 287.827 462.19 289.14 459.561 278.722L461.596 276.398Z" fill="#6C63FF"/>
<path d="M469.977 266.007C469.977 266.007 480.266 265.975 479.413 278.866C479.413 278.866 470.772 280.413 467.923 268.444L469.977 266.007Z" fill="#6C63FF"/>
<path d="M475.719 256.721C475.719 256.721 485.061 252.337 491.037 263.655C491.037 263.655 482.41 267.306 474.892 258.552L475.719 256.721Z" fill="#6C63FF"/>
<path d="M481.587 245.768C481.587 245.768 491.154 241.106 496.77 252.158C496.77 252.158 486.804 255.593 480.797 247.517L481.587 245.768Z" fill="#6C63FF"/>
<path d="M484.971 236.245C484.971 236.245 494.178 227.445 501.524 236.344C501.524 236.344 492.12 243.588 484.548 238.205L484.971 236.245Z" fill="#6C63FF"/>
<path d="M488.053 223.947C488.053 223.947 497.314 214.955 504.602 224.361C504.602 224.361 494.209 231.749 487.721 225.836L488.053 223.947Z" fill="#6C63FF"/>
<path d="M489.783 212.981C489.783 212.981 496.919 201.74 505.321 204.249C505.321 204.249 497.916 216.151 489.864 215.62L489.783 212.981Z" fill="#6C63FF"/>
<path d="M491.886 202.621C491.886 202.621 499.075 188.466 505.878 190.93C505.878 190.93 500.693 201.812 491.702 205.008L491.886 202.621Z" fill="#6C63FF"/>
<path d="M492.385 189.253C492.385 189.253 499.776 178.111 506.701 179.473C506.701 179.473 500.657 190.773 491.666 192.477L492.385 189.253Z" fill="#6C63FF"/>
<path d="M492.96 177.891C492.96 177.891 498.689 165.386 503.344 165.301C503.344 165.301 500.594 177.715 493.346 180.013L492.96 177.891Z" fill="#6C63FF"/>
<path d="M494.083 166.843C494.083 166.843 500.45 154.181 505.236 154.154C505.236 154.154 501.978 164.982 494.294 167.954L494.083 166.843Z" fill="#6C63FF"/>
<path d="M495.04 153.462C495.04 153.462 499.803 142.985 503.749 141.798C503.749 141.798 501.367 154.568 495.566 156.241L495.04 153.462Z" fill="#6C63FF"/>
<path d="M498.078 142.846L508.723 126.618C508.723 126.618 505.995 142.626 496.523 145.953L498.078 142.846Z" fill="#6C63FF"/>
<path d="M505.384 125.243C505.384 125.243 517.754 116.699 518.204 115.319C518.204 115.319 511.913 127.284 500.23 129.397L505.384 125.243Z" fill="#6C63FF"/>
<path d="M506.125 121.398C506.125 121.398 520.329 107.734 523.955 107.747C523.955 107.747 512.241 108.282 505.784 120.67L506.125 121.398Z" fill="#6C63FF"/>
<path d="M495.18 155.49L495.696 155.557C498.365 134.653 502.257 122.284 506.651 120.769L506.48 120.274C501.821 121.893 497.903 134.073 495.18 155.49Z" fill="#444053"/>
<path d="M491.252 205.481L492.034 205.544C492.201 203.592 492.326 201.596 492.412 199.604C493.158 182.302 494.312 166.411 495.831 154.501L495.382 153.938C493.859 165.876 492.376 182.243 491.63 199.572C491.545 201.551 491.419 203.538 491.252 205.481Z" fill="#444053"/>
<path d="M431.401 300.152C431.536 300.094 445.299 293.943 459.583 279.275C467.952 270.685 474.906 260.82 480.185 250.049C486.791 236.591 490.817 220.053 492.165 203.988L491.351 204.37C488.318 240.431 471.913 265.071 458.869 278.493C444.724 293.03 431.114 299.118 430.979 299.176L431.401 300.152Z" fill="#444053"/>
<path d="M467.038 38.3228H35.2816C34.2615 38.3228 33.2832 38.7283 32.5619 39.4501C31.8405 40.1719 31.4353 41.1509 31.4353 42.1717V53.3857H470.884V42.1717C470.884 41.1509 470.479 40.1719 469.758 39.4501C469.036 38.7283 468.058 38.3228 467.038 38.3228Z" fill="#3F3D56"/>
<path d="M31.4353 53.3857V305.741C31.4353 307.799 32.2524 309.773 33.7068 311.229C35.1613 312.684 37.1339 313.502 39.1908 313.502H463.129C465.186 313.502 467.158 312.684 468.613 311.229C470.067 309.773 470.884 307.799 470.884 305.741V53.3857H31.4353Z" fill="white"/>
<path opacity="0.8" d="M38.3955 47.5404C39.3881 47.5404 40.1928 46.7351 40.1928 45.7418C40.1928 44.7485 39.3881 43.9432 38.3955 43.9432C37.4028 43.9432 36.5981 44.7485 36.5981 45.7418C36.5981 46.7351 37.4028 47.5404 38.3955 47.5404Z" fill="#FA5959"/>
<path opacity="0.8" d="M43.3384 47.5404C44.331 47.5404 45.1357 46.7351 45.1357 45.7418C45.1357 44.7485 44.331 43.9432 43.3384 43.9432C42.3457 43.9432 41.541 44.7485 41.541 45.7418C41.541 46.7351 42.3457 47.5404 43.3384 47.5404Z" fill="#FED253"/>
<path opacity="0.8" d="M48.281 47.5404C49.2736 47.5404 50.0783 46.7351 50.0783 45.7418C50.0783 44.7485 49.2736 43.9432 48.281 43.9432C47.2883 43.9432 46.4836 44.7485 46.4836 45.7418C46.4836 46.7351 47.2883 47.5404 48.281 47.5404Z" fill="#8CCF4D"/>
<path opacity="0.05" d="M425.461 95.4629H72.2844V250.867H425.461V95.4629Z" fill="black"/>
<path d="M422.765 96.6409H74.9805V248.619H422.765V96.6409Z" fill="#3F3D56"/>
<path d="M169.79 135.755C162.947 135.755 156.258 137.786 150.568 141.59C144.878 145.394 140.444 150.802 137.825 157.128C135.206 163.454 134.521 170.416 135.856 177.132C137.191 183.848 140.486 190.017 145.325 194.859C150.164 199.701 156.329 202.998 163.04 204.334C169.752 205.67 176.708 204.985 183.03 202.364C189.352 199.744 194.756 195.306 198.558 189.612C202.359 183.919 204.389 177.225 204.389 170.377C204.389 165.831 203.494 161.328 201.755 157.128C200.016 152.927 197.468 149.111 194.255 145.896C191.042 142.681 187.228 140.13 183.03 138.391C178.833 136.651 174.333 135.755 169.79 135.755ZM175.995 171.209V187.603H163.764V171.209C162.072 169.927 160.824 168.145 160.198 166.116C159.572 164.086 159.599 161.911 160.274 159.897C160.95 157.883 162.241 156.133 163.964 154.893C165.688 153.653 167.757 152.985 169.88 152.985C172.003 152.985 174.072 153.653 175.795 154.893C177.519 156.133 178.809 157.883 179.485 159.897C180.161 161.911 180.188 164.086 179.561 166.116C178.935 168.145 177.688 169.927 175.995 171.209Z" fill="#6C63FF"/>
<path opacity="0.05" d="M169.79 135.755C162.947 135.755 156.258 137.786 150.568 141.59C144.878 145.394 140.444 150.802 137.825 157.128C135.206 163.454 134.521 170.416 135.856 177.132C137.191 183.848 140.486 190.017 145.325 194.859C150.164 199.701 156.329 202.998 163.04 204.334C169.752 205.67 176.708 204.985 183.03 202.364C189.352 199.744 194.756 195.306 198.558 189.612C202.359 183.919 204.389 177.225 204.389 170.377C204.389 165.831 203.494 161.328 201.755 157.128C200.016 152.927 197.468 149.111 194.255 145.896C191.042 142.681 187.228 140.13 183.03 138.391C178.833 136.651 174.333 135.755 169.79 135.755ZM175.995 171.209V187.603H163.764V171.209C162.072 169.927 160.824 168.145 160.198 166.116C159.572 164.086 159.599 161.911 160.274 159.897C160.95 157.883 162.241 156.133 163.964 154.893C165.688 153.653 167.757 152.985 169.88 152.985C172.003 152.985 174.072 153.653 175.795 154.893C177.519 156.133 178.809 157.883 179.485 159.897C180.161 161.911 180.188 164.086 179.561 166.116C178.935 168.145 177.688 169.927 175.995 171.209Z" fill="black"/>
<path d="M169.79 125.863C160.992 125.863 152.391 128.474 145.076 133.365C137.76 138.256 132.059 145.208 128.692 153.342C125.325 161.476 124.444 170.427 126.16 179.062C127.877 187.696 132.114 195.628 138.335 201.854C144.556 208.079 152.482 212.319 161.111 214.036C169.74 215.754 178.685 214.872 186.813 211.503C194.941 208.134 201.889 202.428 206.777 195.108C211.665 187.788 214.274 179.181 214.274 170.377C214.274 158.571 209.587 147.249 201.245 138.901C192.902 130.553 181.588 125.863 169.79 125.863ZM177.765 171.447V192.522H162.039V171.447C159.862 169.799 158.257 167.508 157.452 164.897C156.646 162.287 156.68 159.489 157.549 156.9C158.418 154.31 160.078 152.058 162.294 150.463C164.511 148.868 167.172 148.01 169.902 148.01C172.632 148.01 175.293 148.868 177.51 150.463C179.726 152.058 181.386 154.31 182.255 156.9C183.124 159.489 183.158 162.287 182.353 164.897C181.547 167.508 179.942 169.799 177.765 171.447Z" fill="#6C63FF"/>
<path d="M376.484 164.536H232.697V179.824H376.484V164.536Z" fill="white"/>
<path d="M376.484 192.414H345.479V207.702H376.484V192.414Z" fill="#6C63FF"/>
<path d="M246.851 171.951H244.249L246.563 169.64C246.605 169.597 246.628 169.54 246.628 169.48C246.628 169.421 246.605 169.363 246.563 169.321C246.542 169.3 246.517 169.283 246.49 169.271C246.463 169.26 246.433 169.254 246.404 169.254C246.374 169.254 246.345 169.26 246.317 169.271C246.29 169.283 246.265 169.3 246.244 169.321L243.93 171.636V169.028C243.93 168.969 243.906 168.912 243.864 168.869C243.822 168.827 243.765 168.804 243.705 168.804C243.646 168.805 243.59 168.829 243.548 168.871C243.506 168.913 243.482 168.969 243.481 169.028V171.636L241.171 169.307C241.15 169.286 241.125 169.269 241.098 169.258C241.071 169.247 241.041 169.241 241.012 169.241C240.982 169.241 240.953 169.247 240.925 169.258C240.898 169.269 240.873 169.286 240.852 169.307C240.811 169.35 240.788 169.407 240.788 169.467C240.788 169.526 240.811 169.584 240.852 169.626L243.166 171.938H240.56C240.501 171.939 240.444 171.963 240.403 172.005C240.361 172.047 240.337 172.103 240.335 172.162C240.335 172.222 240.359 172.279 240.401 172.321C240.443 172.363 240.501 172.387 240.56 172.387H243.166L240.852 174.703C240.811 174.746 240.788 174.803 240.788 174.862C240.788 174.922 240.811 174.979 240.852 175.022C240.895 175.063 240.952 175.085 241.012 175.085C241.071 175.085 241.128 175.063 241.171 175.022L243.481 172.706V175.31C243.481 175.369 243.504 175.427 243.547 175.469C243.589 175.511 243.646 175.535 243.705 175.535C243.765 175.535 243.822 175.511 243.864 175.469C243.906 175.427 243.93 175.369 243.93 175.31V172.706L246.244 175.022C246.287 175.063 246.344 175.085 246.404 175.085C246.463 175.085 246.52 175.063 246.563 175.022C246.605 174.979 246.628 174.922 246.628 174.862C246.628 174.803 246.605 174.746 246.563 174.703L244.249 172.387H246.851C246.91 172.387 246.968 172.363 247.01 172.321C247.052 172.279 247.075 172.222 247.075 172.162C247.072 172.105 247.047 172.051 247.005 172.012C246.963 171.973 246.908 171.951 246.851 171.951Z" fill="#6C63FF"/>
<path d="M256.287 171.951H253.685L255.999 169.64C256.041 169.597 256.064 169.54 256.064 169.48C256.064 169.421 256.041 169.363 255.999 169.321C255.978 169.3 255.953 169.283 255.926 169.271C255.899 169.26 255.869 169.254 255.84 169.254C255.81 169.254 255.781 169.26 255.753 169.271C255.726 169.283 255.701 169.3 255.68 169.321L253.366 171.636V169.028C253.366 168.969 253.342 168.912 253.3 168.869C253.258 168.827 253.201 168.804 253.141 168.804C253.082 168.805 253.026 168.829 252.984 168.871C252.942 168.913 252.918 168.969 252.917 169.028V171.636L250.607 169.307C250.586 169.286 250.561 169.269 250.534 169.258C250.507 169.247 250.477 169.241 250.448 169.241C250.418 169.241 250.389 169.247 250.361 169.258C250.334 169.269 250.309 169.286 250.288 169.307C250.247 169.35 250.224 169.407 250.224 169.467C250.224 169.526 250.247 169.584 250.288 169.626L252.602 171.938H249.996C249.937 171.939 249.88 171.963 249.839 172.005C249.797 172.047 249.773 172.103 249.771 172.162C249.771 172.222 249.795 172.279 249.837 172.321C249.879 172.363 249.937 172.387 249.996 172.387H252.602L250.288 174.703C250.247 174.746 250.224 174.803 250.224 174.862C250.224 174.922 250.247 174.979 250.288 175.022C250.331 175.063 250.388 175.085 250.448 175.085C250.507 175.085 250.564 175.063 250.607 175.022L252.917 172.706V175.31C252.917 175.369 252.94 175.427 252.983 175.469C253.025 175.511 253.082 175.535 253.141 175.535C253.201 175.535 253.258 175.511 253.3 175.469C253.342 175.427 253.366 175.369 253.366 175.31V172.706L255.68 175.022C255.723 175.063 255.78 175.085 255.84 175.085C255.899 175.085 255.956 175.063 255.999 175.022C256.041 174.979 256.064 174.922 256.064 174.862C256.064 174.803 256.041 174.746 255.999 174.703L253.685 172.387H256.287C256.346 172.387 256.404 172.363 256.446 172.321C256.488 172.279 256.511 172.222 256.511 172.162C256.508 172.105 256.483 172.051 256.441 172.012C256.399 171.973 256.344 171.951 256.287 171.951Z" fill="#6C63FF"/>
<path d="M265.723 171.951H263.121L265.435 169.64C265.477 169.597 265.5 169.54 265.5 169.48C265.5 169.421 265.477 169.363 265.435 169.321C265.414 169.3 265.39 169.283 265.362 169.271C265.335 169.26 265.305 169.254 265.276 169.254C265.246 169.254 265.217 169.26 265.189 169.271C265.162 169.283 265.137 169.3 265.116 169.321L262.802 171.636V169.028C262.802 168.969 262.779 168.912 262.736 168.869C262.694 168.827 262.637 168.804 262.578 168.804C262.518 168.805 262.462 168.829 262.42 168.871C262.378 168.913 262.354 168.969 262.353 169.028V171.636L260.043 169.307C260.022 169.286 259.998 169.269 259.97 169.258C259.943 169.247 259.913 169.241 259.884 169.241C259.854 169.241 259.825 169.247 259.797 169.258C259.77 169.269 259.745 169.286 259.724 169.307C259.683 169.35 259.66 169.407 259.66 169.467C259.66 169.526 259.683 169.584 259.724 169.626L262.038 171.938H259.432C259.373 171.939 259.316 171.963 259.275 172.005C259.233 172.047 259.209 172.103 259.208 172.162C259.208 172.222 259.231 172.279 259.273 172.321C259.315 172.363 259.373 172.387 259.432 172.387H262.038L259.724 174.703C259.683 174.746 259.66 174.803 259.66 174.862C259.66 174.922 259.683 174.979 259.724 175.022C259.768 175.063 259.825 175.085 259.884 175.085C259.943 175.085 260 175.063 260.043 175.022L262.353 172.706V175.31C262.353 175.369 262.377 175.427 262.419 175.469C262.461 175.511 262.518 175.535 262.578 175.535C262.637 175.535 262.694 175.511 262.736 175.469C262.779 175.427 262.802 175.369 262.802 175.31V172.706L265.116 175.022C265.16 175.063 265.217 175.085 265.276 175.085C265.335 175.085 265.392 175.063 265.435 175.022C265.477 174.979 265.5 174.922 265.5 174.862C265.5 174.803 265.477 174.746 265.435 174.703L263.121 172.387H265.723C265.782 172.387 265.84 172.363 265.882 172.321C265.924 172.279 265.948 172.222 265.948 172.162C265.944 172.105 265.919 172.051 265.877 172.012C265.835 171.973 265.78 171.951 265.723 171.951Z" fill="#6C63FF"/>
<path d="M275.159 171.951H272.557L274.871 169.64C274.913 169.597 274.936 169.54 274.936 169.48C274.936 169.421 274.913 169.363 274.871 169.321C274.85 169.3 274.825 169.283 274.798 169.271C274.771 169.26 274.741 169.254 274.712 169.254C274.682 169.254 274.653 169.26 274.625 169.271C274.598 169.283 274.573 169.3 274.552 169.321L272.238 171.636V169.028C272.238 168.969 272.214 168.912 272.172 168.869C272.13 168.827 272.073 168.804 272.013 168.804C271.954 168.805 271.898 168.829 271.856 168.871C271.814 168.913 271.79 168.969 271.789 169.028V171.636L269.479 169.307C269.458 169.286 269.433 169.269 269.406 169.258C269.379 169.247 269.349 169.241 269.32 169.241C269.29 169.241 269.261 169.247 269.233 169.258C269.206 169.269 269.181 169.286 269.16 169.307C269.119 169.35 269.095 169.407 269.095 169.467C269.095 169.526 269.119 169.584 269.16 169.626L271.474 171.938H268.868C268.809 171.939 268.752 171.963 268.71 172.005C268.668 172.047 268.644 172.103 268.643 172.162C268.643 172.222 268.667 172.279 268.709 172.321C268.751 172.363 268.808 172.387 268.868 172.387H271.474L269.16 174.703C269.119 174.746 269.095 174.803 269.095 174.862C269.095 174.922 269.119 174.979 269.16 175.022C269.203 175.063 269.26 175.085 269.32 175.085C269.379 175.085 269.436 175.063 269.479 175.022L271.789 172.706V175.31C271.789 175.369 271.812 175.427 271.854 175.469C271.897 175.511 271.954 175.535 272.013 175.535C272.073 175.535 272.13 175.511 272.172 175.469C272.214 175.427 272.238 175.369 272.238 175.31V172.706L274.552 175.022C274.595 175.063 274.652 175.085 274.712 175.085C274.771 175.085 274.828 175.063 274.871 175.022C274.913 174.979 274.936 174.922 274.936 174.862C274.936 174.803 274.913 174.746 274.871 174.703L272.557 172.387H275.159C275.218 172.387 275.275 172.363 275.318 172.321C275.36 172.279 275.383 172.222 275.383 172.162C275.38 172.105 275.355 172.051 275.313 172.012C275.271 171.973 275.216 171.951 275.159 171.951Z" fill="#6C63FF"/>
<path d="M284.595 171.951H281.993L284.307 169.64C284.349 169.597 284.372 169.54 284.372 169.48C284.372 169.421 284.349 169.363 284.307 169.321C284.286 169.3 284.261 169.283 284.234 169.271C284.207 169.26 284.177 169.254 284.148 169.254C284.118 169.254 284.089 169.26 284.061 169.271C284.034 169.283 284.009 169.3 283.988 169.321L281.674 171.636V169.028C281.674 168.969 281.65 168.912 281.608 168.869C281.566 168.827 281.509 168.804 281.449 168.804C281.39 168.805 281.334 168.829 281.292 168.871C281.25 168.913 281.226 168.969 281.225 169.028V171.636L278.915 169.307C278.894 169.286 278.869 169.269 278.842 169.258C278.815 169.247 278.785 169.241 278.756 169.241C278.726 169.241 278.697 169.247 278.669 169.258C278.642 169.269 278.617 169.286 278.596 169.307C278.555 169.35 278.531 169.407 278.531 169.467C278.531 169.526 278.555 169.584 278.596 169.626L280.91 171.938H278.304C278.245 171.939 278.188 171.963 278.146 172.005C278.105 172.047 278.08 172.103 278.079 172.162C278.079 172.222 278.103 172.279 278.145 172.321C278.187 172.363 278.244 172.387 278.304 172.387H280.91L278.596 174.703C278.555 174.746 278.531 174.803 278.531 174.862C278.531 174.922 278.555 174.979 278.596 175.022C278.639 175.063 278.696 175.085 278.756 175.085C278.815 175.085 278.872 175.063 278.915 175.022L281.225 172.706V175.31C281.225 175.369 281.248 175.427 281.29 175.469C281.333 175.511 281.39 175.535 281.449 175.535C281.509 175.535 281.566 175.511 281.608 175.469C281.65 175.427 281.674 175.369 281.674 175.31V172.706L283.988 175.022C284.031 175.063 284.088 175.085 284.148 175.085C284.207 175.085 284.264 175.063 284.307 175.022C284.349 174.979 284.372 174.922 284.372 174.862C284.372 174.803 284.349 174.746 284.307 174.703L281.993 172.387H284.595C284.654 172.387 284.711 172.363 284.754 172.321C284.796 172.279 284.819 172.222 284.819 172.162C284.816 172.105 284.791 172.051 284.749 172.012C284.707 171.973 284.652 171.951 284.595 171.951Z" fill="#6C63FF"/>
<path d="M294.031 171.951H291.429L293.743 169.64C293.785 169.597 293.808 169.54 293.808 169.48C293.808 169.421 293.785 169.363 293.743 169.321C293.722 169.3 293.697 169.283 293.67 169.271C293.643 169.26 293.613 169.254 293.584 169.254C293.554 169.254 293.525 169.26 293.497 169.271C293.47 169.283 293.445 169.3 293.424 169.321L291.11 171.636V169.028C291.11 168.969 291.086 168.912 291.044 168.869C291.002 168.827 290.945 168.804 290.885 168.804C290.826 168.805 290.77 168.829 290.728 168.871C290.686 168.913 290.662 168.969 290.661 169.028V171.636L288.351 169.307C288.33 169.286 288.305 169.269 288.278 169.258C288.251 169.247 288.221 169.241 288.192 169.241C288.162 169.241 288.133 169.247 288.105 169.258C288.078 169.269 288.053 169.286 288.032 169.307C287.991 169.35 287.967 169.407 287.967 169.467C287.967 169.526 287.991 169.584 288.032 169.626L290.346 171.938H287.74C287.681 171.939 287.624 171.963 287.582 172.005C287.541 172.047 287.517 172.103 287.515 172.162C287.515 172.222 287.539 172.279 287.581 172.321C287.623 172.363 287.68 172.387 287.74 172.387H290.346L288.032 174.703C287.991 174.746 287.967 174.803 287.967 174.862C287.967 174.922 287.991 174.979 288.032 175.022C288.075 175.063 288.132 175.085 288.192 175.085C288.251 175.085 288.308 175.063 288.351 175.022L290.661 172.706V175.31C290.661 175.369 290.684 175.427 290.727 175.469C290.769 175.511 290.826 175.535 290.885 175.535C290.945 175.535 291.002 175.511 291.044 175.469C291.086 175.427 291.11 175.369 291.11 175.31V172.706L293.424 175.022C293.467 175.063 293.524 175.085 293.584 175.085C293.643 175.085 293.7 175.063 293.743 175.022C293.785 174.979 293.808 174.922 293.808 174.862C293.808 174.803 293.785 174.746 293.743 174.703L291.429 172.387H294.031C294.09 172.387 294.147 172.363 294.19 172.321C294.232 172.279 294.255 172.222 294.255 172.162C294.252 172.105 294.227 172.051 294.185 172.012C294.143 171.973 294.088 171.951 294.031 171.951Z" fill="#6C63FF"/>
<path d="M303.467 171.951H300.865L303.179 169.64C303.221 169.597 303.244 169.54 303.244 169.48C303.244 169.421 303.221 169.363 303.179 169.321C303.158 169.3 303.133 169.283 303.106 169.271C303.079 169.26 303.049 169.254 303.02 169.254C302.99 169.254 302.961 169.26 302.933 169.271C302.906 169.283 302.881 169.3 302.86 169.321L300.546 171.636V169.028C300.546 168.969 300.522 168.912 300.48 168.869C300.438 168.827 300.381 168.804 300.321 168.804C300.262 168.805 300.206 168.829 300.164 168.871C300.122 168.913 300.098 168.969 300.097 169.028V171.636L297.787 169.307C297.766 169.286 297.741 169.269 297.714 169.258C297.687 169.247 297.657 169.241 297.628 169.241C297.598 169.241 297.569 169.247 297.541 169.258C297.514 169.269 297.489 169.286 297.468 169.307C297.427 169.35 297.403 169.407 297.403 169.467C297.403 169.526 297.427 169.584 297.468 169.626L299.782 171.938H297.176C297.117 171.939 297.06 171.963 297.018 172.005C296.977 172.047 296.953 172.103 296.951 172.162C296.951 172.222 296.975 172.279 297.017 172.321C297.059 172.363 297.116 172.387 297.176 172.387H299.782L297.468 174.703C297.427 174.746 297.403 174.803 297.403 174.862C297.403 174.922 297.427 174.979 297.468 175.022C297.511 175.063 297.568 175.085 297.628 175.085C297.687 175.085 297.744 175.063 297.787 175.022L300.097 172.706V175.31C300.097 175.369 300.12 175.427 300.163 175.469C300.205 175.511 300.262 175.535 300.321 175.535C300.381 175.535 300.438 175.511 300.48 175.469C300.522 175.427 300.546 175.369 300.546 175.31V172.706L302.86 175.022C302.903 175.063 302.96 175.085 303.02 175.085C303.079 175.085 303.136 175.063 303.179 175.022C303.221 174.979 303.244 174.922 303.244 174.862C303.244 174.803 303.221 174.746 303.179 174.703L300.865 172.387H303.467C303.526 172.387 303.583 172.363 303.626 172.321C303.668 172.279 303.691 172.222 303.691 172.162C303.688 172.105 303.663 172.051 303.621 172.012C303.579 171.973 303.524 171.951 303.467 171.951Z" fill="#6C63FF"/>
<path d="M312.903 171.951H310.301L312.615 169.64C312.657 169.597 312.68 169.54 312.68 169.48C312.68 169.421 312.657 169.363 312.615 169.321C312.594 169.3 312.569 169.283 312.542 169.271C312.515 169.26 312.485 169.254 312.456 169.254C312.426 169.254 312.397 169.26 312.369 169.271C312.342 169.283 312.317 169.3 312.296 169.321L309.982 171.636V169.028C309.982 168.969 309.958 168.912 309.916 168.869C309.874 168.827 309.817 168.804 309.757 168.804C309.698 168.805 309.642 168.829 309.6 168.871C309.558 168.913 309.534 168.969 309.533 169.028V171.636L307.223 169.307C307.202 169.286 307.177 169.269 307.15 169.258C307.123 169.247 307.093 169.241 307.064 169.241C307.034 169.241 307.005 169.247 306.977 169.258C306.95 169.269 306.925 169.286 306.904 169.307C306.863 169.35 306.84 169.407 306.84 169.467C306.84 169.526 306.863 169.584 306.904 169.626L309.218 171.938H306.612C306.553 171.939 306.496 171.963 306.455 172.005C306.413 172.047 306.389 172.103 306.387 172.162C306.387 172.222 306.411 172.279 306.453 172.321C306.495 172.363 306.553 172.387 306.612 172.387H309.218L306.904 174.703C306.863 174.746 306.84 174.803 306.84 174.862C306.84 174.922 306.863 174.979 306.904 175.022C306.947 175.063 307.004 175.085 307.064 175.085C307.123 175.085 307.18 175.063 307.223 175.022L309.533 172.706V175.31C309.533 175.369 309.556 175.427 309.599 175.469C309.641 175.511 309.698 175.535 309.757 175.535C309.817 175.535 309.874 175.511 309.916 175.469C309.958 175.427 309.982 175.369 309.982 175.31V172.706L312.296 175.022C312.339 175.063 312.396 175.085 312.456 175.085C312.515 175.085 312.572 175.063 312.615 175.022C312.657 174.979 312.68 174.922 312.68 174.862C312.68 174.803 312.657 174.746 312.615 174.703L310.301 172.387H312.903C312.962 172.387 313.02 172.363 313.062 172.321C313.104 172.279 313.127 172.222 313.127 172.162C313.124 172.105 313.099 172.051 313.057 172.012C313.015 171.973 312.96 171.951 312.903 171.951Z" fill="#6C63FF"/>
<path d="M322.339 171.951H319.737L322.051 169.64C322.093 169.597 322.116 169.54 322.116 169.48C322.116 169.421 322.093 169.363 322.051 169.321C322.03 169.3 322.006 169.283 321.978 169.271C321.951 169.26 321.921 169.254 321.892 169.254C321.862 169.254 321.833 169.26 321.805 169.271C321.778 169.283 321.753 169.3 321.732 169.321L319.418 171.636V169.028C319.418 168.969 319.394 168.912 319.352 168.869C319.31 168.827 319.253 168.804 319.193 168.804C319.134 168.805 319.078 168.829 319.036 168.871C318.994 168.913 318.97 168.969 318.969 169.028V171.636L316.659 169.307C316.638 169.286 316.614 169.269 316.586 169.258C316.559 169.247 316.529 169.241 316.5 169.241C316.47 169.241 316.441 169.247 316.413 169.258C316.386 169.269 316.361 169.286 316.34 169.307C316.299 169.35 316.276 169.407 316.276 169.467C316.276 169.526 316.299 169.584 316.34 169.626L318.654 171.938H316.048C315.989 171.939 315.932 171.963 315.891 172.005C315.849 172.047 315.825 172.103 315.823 172.162C315.823 172.222 315.847 172.279 315.889 172.321C315.931 172.363 315.989 172.387 316.048 172.387H318.654L316.34 174.703C316.299 174.746 316.276 174.803 316.276 174.862C316.276 174.922 316.299 174.979 316.34 175.022C316.383 175.063 316.44 175.085 316.5 175.085C316.559 175.085 316.616 175.063 316.659 175.022L318.969 172.706V175.31C318.969 175.369 318.992 175.427 319.035 175.469C319.077 175.511 319.134 175.535 319.193 175.535C319.253 175.535 319.31 175.511 319.352 175.469C319.394 175.427 319.418 175.369 319.418 175.31V172.706L321.732 175.022C321.775 175.063 321.833 175.085 321.892 175.085C321.951 175.085 322.008 175.063 322.051 175.022C322.093 174.979 322.116 174.922 322.116 174.862C322.116 174.803 322.093 174.746 322.051 174.703L319.737 172.387H322.339C322.398 172.387 322.456 172.363 322.498 172.321C322.54 172.279 322.564 172.222 322.564 172.162C322.56 172.105 322.535 172.051 322.493 172.012C322.451 171.973 322.396 171.951 322.339 171.951Z" fill="#6C63FF"/>
<path d="M331.775 171.951H329.173L331.487 169.64C331.529 169.597 331.552 169.54 331.552 169.48C331.552 169.421 331.529 169.363 331.487 169.321C331.466 169.3 331.442 169.283 331.414 169.271C331.387 169.26 331.357 169.254 331.328 169.254C331.298 169.254 331.269 169.26 331.241 169.271C331.214 169.283 331.189 169.3 331.168 169.321L328.854 171.636V169.028C328.854 168.969 328.83 168.912 328.788 168.869C328.746 168.827 328.689 168.804 328.63 168.804C328.57 168.805 328.514 168.829 328.472 168.871C328.43 168.913 328.406 168.969 328.405 169.028V171.636L326.095 169.307C326.074 169.286 326.05 169.269 326.022 169.258C325.995 169.247 325.965 169.241 325.936 169.241C325.906 169.241 325.877 169.247 325.849 169.258C325.822 169.269 325.797 169.286 325.776 169.307C325.735 169.35 325.712 169.407 325.712 169.467C325.712 169.526 325.735 169.584 325.776 169.626L328.09 171.938H325.484C325.425 171.939 325.368 171.963 325.327 172.005C325.285 172.047 325.261 172.103 325.26 172.162C325.26 172.222 325.283 172.279 325.325 172.321C325.367 172.363 325.425 172.387 325.484 172.387H328.09L325.776 174.703C325.735 174.746 325.712 174.803 325.712 174.862C325.712 174.922 325.735 174.979 325.776 175.022C325.82 175.063 325.877 175.085 325.936 175.085C325.995 175.085 326.052 175.063 326.095 175.022L328.405 172.706V175.31C328.405 175.369 328.429 175.427 328.471 175.469C328.513 175.511 328.57 175.535 328.63 175.535C328.689 175.535 328.746 175.511 328.788 175.469C328.83 175.427 328.854 175.369 328.854 175.31V172.706L331.168 175.022C331.212 175.063 331.269 175.085 331.328 175.085C331.387 175.085 331.444 175.063 331.487 175.022C331.529 174.979 331.552 174.922 331.552 174.862C331.552 174.803 331.529 174.746 331.487 174.703L329.173 172.387H331.775C331.834 172.387 331.892 172.363 331.934 172.321C331.976 172.279 332 172.222 332 172.162C331.996 172.105 331.971 172.051 331.929 172.012C331.887 171.973 331.832 171.951 331.775 171.951Z" fill="#6C63FF"/>
<path d="M341.211 171.951H338.609L340.923 169.64C340.965 169.597 340.988 169.54 340.988 169.48C340.988 169.421 340.965 169.363 340.923 169.321C340.902 169.3 340.878 169.283 340.85 169.271C340.823 169.26 340.793 169.254 340.764 169.254C340.734 169.254 340.705 169.26 340.677 169.271C340.65 169.283 340.625 169.3 340.604 169.321L338.29 171.636V169.028C338.29 168.969 338.267 168.912 338.224 168.869C338.182 168.827 338.125 168.804 338.066 168.804C338.006 168.805 337.95 168.829 337.908 168.871C337.866 168.913 337.842 168.969 337.841 169.028V171.636L335.531 169.307C335.51 169.286 335.486 169.269 335.458 169.258C335.431 169.247 335.401 169.241 335.372 169.241C335.342 169.241 335.313 169.247 335.285 169.258C335.258 169.269 335.233 169.286 335.212 169.307C335.171 169.35 335.148 169.407 335.148 169.467C335.148 169.526 335.171 169.584 335.212 169.626L337.526 171.938H334.92C334.861 171.939 334.804 171.963 334.763 172.005C334.721 172.047 334.697 172.103 334.696 172.162C334.696 172.222 334.719 172.279 334.761 172.321C334.803 172.363 334.861 172.387 334.92 172.387H337.526L335.212 174.703C335.171 174.746 335.148 174.803 335.148 174.862C335.148 174.922 335.171 174.979 335.212 175.022C335.256 175.063 335.313 175.085 335.372 175.085C335.431 175.085 335.488 175.063 335.531 175.022L337.841 172.706V175.31C337.841 175.369 337.865 175.427 337.907 175.469C337.949 175.511 338.006 175.535 338.066 175.535C338.125 175.535 338.182 175.511 338.224 175.469C338.267 175.427 338.29 175.369 338.29 175.31V172.706L340.604 175.022C340.648 175.063 340.705 175.085 340.764 175.085C340.823 175.085 340.88 175.063 340.923 175.022C340.965 174.979 340.988 174.922 340.988 174.862C340.988 174.803 340.965 174.746 340.923 174.703L338.609 172.387H341.211C341.27 172.387 341.328 172.363 341.37 172.321C341.412 172.279 341.436 172.222 341.436 172.162C341.432 172.105 341.407 172.051 341.365 172.012C341.323 171.973 341.268 171.951 341.211 171.951Z" fill="#6C63FF"/>
<path d="M413.549 226.65C413.536 226.106 413.469 225.565 413.347 225.035C412.943 223.516 412.03 221.677 410.53 221.218C408.98 220.743 407.483 220.11 406.063 219.329C405.794 214.509 406.899 209.577 405.695 204.905C405.245 203.196 404.504 201.56 404.306 199.811C404.059 197.634 404.652 195.314 403.785 193.309C403.102 191.726 401.601 190.611 399.988 190.026C398.375 189.442 396.636 189.285 394.924 189.127C392.767 188.952 385.785 188.124 383.349 190.053C383.181 190.184 383.03 190.335 382.9 190.503C382.846 190.577 382.798 190.655 382.756 190.737L382.734 190.773C382.685 190.867 382.644 190.964 382.612 191.065C382.579 191.175 382.553 191.288 382.536 191.402C382.536 191.438 382.536 191.474 382.536 191.51C382.536 191.546 382.536 191.668 382.536 191.749V191.87C382.536 191.951 382.536 192.032 382.536 192.117C382.536 192.203 382.536 192.18 382.536 192.212C382.568 192.616 382.626 193.021 382.626 193.421C382.631 193.62 382.613 193.82 382.572 194.015C382.422 194.545 382.169 195.04 381.826 195.472L381.745 195.589C381.696 195.66 381.646 195.728 381.601 195.8C381.557 195.872 381.521 195.926 381.485 195.989C381.449 196.052 381.413 196.092 381.381 196.151C381.338 196.225 381.299 196.301 381.264 196.38C381.264 196.425 381.215 196.465 381.197 196.51C381.141 196.632 381.096 196.758 381.062 196.888C380.957 197.279 380.948 197.689 381.035 198.084C381.156 198.588 381.365 199.068 381.651 199.5C381.763 199.685 381.885 199.865 382.01 200.044L382.325 200.472C382.266 200.889 382.235 201.309 382.231 201.731C382.231 203.139 382.55 204.528 383.165 205.795C383.78 207.061 384.674 208.171 385.78 209.042C385.958 210.941 385.939 212.853 385.722 214.748C385.681 215.143 385.632 215.543 385.578 215.939C385.524 216.335 385.484 216.596 385.43 216.924C384.772 217.018 384.102 216.967 383.466 216.775C383.173 216.645 382.873 216.529 382.568 216.429C381.26 216.101 379.925 217.405 378.631 217.009C378.631 217.072 378.595 217.131 378.573 217.189C378.303 217.021 377.992 216.93 377.674 216.924C376.906 216.888 376.281 216.33 375.724 215.804L374.012 214.19C373.901 214.091 373.801 213.98 373.716 213.857C373.624 213.682 373.554 213.497 373.509 213.304C373.221 212.374 372.525 211.632 371.851 210.926C371.723 210.765 371.554 210.642 371.361 210.57C371.287 210.559 371.211 210.559 371.137 210.57C371.091 210.508 371.041 210.448 370.988 210.391C370.872 210.257 370.747 210.131 370.615 210.013C369.797 209.258 369.717 208.61 369.007 207.765C368.387 206.959 367.826 206.11 367.326 205.224C367.268 204.752 367.187 204.267 367.088 203.776C366.861 202.654 366.532 201.556 366.104 200.494L365.205 198.502L365.102 198.606C364.45 197.634 363.754 197.104 363.129 197.23C362.082 197.446 361.566 199.478 361.732 202.135L362.091 204.833C362.091 204.901 362.123 204.968 362.141 205.035C362.076 205.355 362.043 205.68 362.042 206.007C362.042 206.384 362.392 206.663 362.577 207C362.872 207.457 363.028 207.99 363.026 208.534C363.004 208.727 362.945 208.911 362.936 209.1C362.961 209.523 363.107 209.929 363.359 210.269L365.605 214.046L366.055 214.838L366.081 214.874C366.223 215.15 366.43 215.387 366.684 215.566C366.772 216.512 367.022 217.435 367.425 218.295C367.501 218.466 367.587 218.628 367.677 218.79C368.281 219.783 368.992 220.708 369.797 221.546L370.867 222.747C371.923 223.925 372.979 225.107 374.125 226.195C374.535 226.632 375.03 226.979 375.58 227.216C375.85 227.324 376.143 227.359 376.43 227.317C376.717 227.275 376.988 227.158 377.216 226.978C377.216 227.535 377.216 228.093 377.216 228.65C377.383 228.661 377.544 228.715 377.683 228.809C377.821 228.902 377.932 229.031 378.005 229.182C378.077 229.332 378.108 229.5 378.094 229.666C378.08 229.833 378.022 229.993 377.926 230.13C376.982 232.553 376.03 234.999 374.601 237.171C375.609 237.769 376.544 238.482 377.387 239.298C377.933 239.904 378.419 240.562 378.838 241.263C378.879 241.596 378.91 241.924 378.928 242.252C379.26 247.612 377.189 252.931 375.333 258.039C374.799 259.487 374.214 261.002 374.259 262.508C373.907 262.726 373.571 262.967 373.253 263.232C373.621 264.194 373.478 265.053 373.437 266.083C373.424 266.7 373.297 267.31 373.064 267.881C372.869 268.278 372.653 268.663 372.417 269.037C371.253 271.092 370.997 273.533 370.764 275.881C370.624 277.297 371.172 279.028 370.53 280.296C369.42 282.472 368.436 284.792 368.283 287.211C368.278 287.756 368.209 288.298 368.077 288.826C367.937 289.275 367.69 289.658 367.564 290.098C367.435 290.689 367.404 291.296 367.474 291.897C367.56 294.052 367.24 296.204 366.531 298.241C365.969 299.846 365.349 301.564 365.789 303.214C364.705 304.354 364.036 305.825 363.889 307.391C363.877 307.792 363.829 308.191 363.745 308.583C363.608 308.984 363.427 309.368 363.206 309.729C362.301 311.378 361.878 313.247 361.984 315.125C360.636 316.955 359.962 319.212 359.562 321.456C359.162 323.7 358.987 325.984 358.474 328.201C357.791 331.132 356.556 334.095 356.313 337.099C354.857 338.03 354.228 339.833 353.949 341.537C353.671 343.241 353.626 345.031 352.912 346.604C352.543 347.423 352.013 348.156 351.662 348.992C351.417 349.658 351.236 350.346 351.123 351.047C350.908 352.144 350.719 353.367 350.984 354.419C350.603 354.823 350.158 355.162 349.667 355.422C349.739 355.143 349.798 354.864 349.847 354.581C348.688 355.633 346.585 355.264 345.659 356.528C345.381 356.935 345.273 357.435 345.357 357.921C345.441 358.407 345.71 358.841 346.109 359.131C346.398 359.308 346.711 359.443 347.039 359.531C349.285 360.251 351.595 360.975 353.905 360.593C354.178 360.563 354.442 360.479 354.682 360.345C354.982 360.124 355.229 359.838 355.405 359.509C355.751 358.96 356.097 358.412 356.439 357.863C357.266 358.11 358.108 358.307 358.96 358.452C359.045 359.172 359.108 359.891 359.139 360.611C359.589 360.701 360.191 360.727 360.402 360.309C360.466 360.151 360.492 359.98 360.478 359.81C360.478 359.491 360.523 359.068 360.55 358.637H360.64C362.011 358.692 363.375 358.416 364.617 357.832C364.136 353.848 365.722 349.954 367.097 346.186C368.548 342.22 369.793 338.183 371.047 334.145C371.945 331.303 372.938 328.551 373.819 325.705C374.927 322.108 376.04 318.511 377.158 314.914C377.643 313.331 378.133 311.766 378.69 310.193C379.863 307.008 381.254 303.909 382.855 300.916C383.304 300.067 383.754 299.226 384.122 298.345C384.572 297.27 384.891 296.146 385.25 295.035C386.033 292.756 386.976 290.536 388.072 288.39C388.103 288.331 388.126 288.277 388.157 288.223C388.521 289.711 388.885 291.222 389.128 292.72C389.456 294.555 389.482 296.433 389.204 298.277C388.989 299.532 388.58 300.773 388.629 302.045C388.696 303.803 389.636 305.399 390.098 307.095C390.397 308.363 390.565 309.659 390.602 310.961C390.727 312.985 391.824 315.255 391.051 317.13C388.647 323.07 389.811 329.779 388.44 336.015C387.735 339.217 385.574 342.225 385.744 345.498C385.864 347.821 386.068 350.138 386.355 352.45C386.425 353.179 386.614 353.891 386.917 354.558C387.096 354.909 387.302 355.246 387.533 355.566C387.335 355.642 387.169 355.844 387.025 356.272C386.656 357.396 387.025 358.79 388.022 359.419C388.429 359.637 388.867 359.788 389.321 359.869C389.932 360.042 390.564 360.13 391.199 360.129C391.397 360.119 391.594 360.095 391.788 360.058C392.482 360.35 393.192 360.605 393.913 360.822C393.913 361.006 393.949 361.191 393.972 361.375C393.973 361.471 393.994 361.566 394.035 361.654C394.075 361.741 394.133 361.819 394.205 361.883C394.317 361.935 394.442 361.957 394.565 361.946H397.005C397.005 361.744 397.005 361.537 397.005 361.335C397.284 361.364 397.566 361.334 397.833 361.247C398.1 361.16 398.346 361.019 398.555 360.831C398.771 360.556 398.924 360.236 399.004 359.896C399.669 357.638 400.33 355.38 400.986 353.12C401.772 350.621 402.1 348.001 401.952 345.386C401.085 337.099 402.99 328.785 402.37 320.476C401.997 315.481 402.253 310.46 403.134 305.53C403.336 304.415 403.583 303.282 403.673 302.171C403.87 300.076 403.628 297.958 403.776 295.876C403.826 295.148 403.924 294.424 404.014 293.7C404.63 289.207 404.953 284.678 404.98 280.143C404.967 278.64 404.874 277.14 404.702 275.647C405.17 275.527 405.595 275.278 405.928 274.927C406.328 274.406 406.225 273.673 406.22 273.007C406.22 271.416 406.89 269.914 407.429 268.412C408.121 266.341 408.688 264.23 409.128 262.09C409.592 260.366 409.845 258.592 409.883 256.807C409.883 256.627 409.874 256.447 409.856 256.267C410.025 256.15 410.166 255.996 410.269 255.818C410.386 255.554 410.459 255.273 410.485 254.986C410.646 253.839 410.813 252.688 410.974 251.537C411.094 250.713 411.213 249.89 411.329 249.069L412.758 239.091C412.88 238.223 413.005 237.36 413.127 236.497L413.5 233.916C413.54 233.61 413.585 233.304 413.617 233.016C414.713 231.182 413.666 228.736 413.549 226.65ZM401.628 264.006C401.098 262.747 400.604 261.456 400.73 260.098H400.68C400.798 259.68 400.778 259.235 400.622 258.83C400.482 258.502 400.24 258.223 400.092 257.895C399.932 257.494 399.85 257.067 399.849 256.636C399.737 253.901 399.953 251.163 400.491 248.48C400.55 248.165 400.613 247.846 400.671 247.531C400.86 247.422 401.032 247.287 401.183 247.131C401.42 246.861 401.615 246.558 401.763 246.231C402.271 245.211 402.734 244.172 403.161 243.115C403.3 242.774 403.502 242.378 403.848 242.293C403.776 244.923 404.046 247.607 402.976 249.981C402.773 250.364 402.622 250.772 402.527 251.195C402.428 251.865 402.707 252.544 402.608 253.21C402.558 253.556 402.41 253.875 402.352 254.217C402.307 254.385 402.308 254.561 402.354 254.729C402.4 254.896 402.489 255.048 402.612 255.17C402.672 255.212 402.737 255.245 402.806 255.269C402.779 255.449 402.756 255.633 402.738 255.809C402.702 256.177 402.684 256.524 402.662 256.739C402.558 257.839 402.518 258.944 402.54 260.049C402.54 261.24 402.585 262.432 402.567 263.646C402.584 263.994 402.526 264.342 402.397 264.667C402.308 264.834 402.192 264.986 402.055 265.116C401.925 264.712 401.781 264.356 401.628 264.006Z" fill="url(#paint0_linear)"/>
<path d="M366.159 211.834C367.53 211.553 367.997 208.175 367.201 204.29C366.406 200.405 364.649 197.483 363.278 197.765C361.907 198.046 361.44 201.423 362.236 205.308C363.031 209.193 364.788 212.115 366.159 211.834Z" fill="#FBBEBE"/>
<path d="M387.097 356.357C386.728 357.472 387.097 358.866 388.094 359.473C388.499 359.689 388.934 359.84 389.384 359.923C389.994 360.095 390.624 360.181 391.258 360.179C392.035 360.143 392.781 359.837 393.558 359.729C393.648 359.707 393.743 359.72 393.823 359.765C393.862 359.807 393.891 359.857 393.909 359.911C393.926 359.966 393.93 360.024 393.922 360.08C393.931 360.522 393.964 360.964 394.021 361.402C394.022 361.498 394.043 361.594 394.083 361.681C394.124 361.769 394.182 361.847 394.255 361.91C394.367 361.962 394.491 361.984 394.614 361.973H397.05C397.105 359.832 396.871 357.693 396.353 355.615C396.319 355.456 396.259 355.304 396.173 355.165C395.967 354.939 395.695 354.782 395.396 354.716C394.801 354.468 394.158 354.356 393.513 354.388C392.727 354.491 392.071 354.999 391.402 355.422C390.732 355.844 389.82 356.218 389.007 356.002C388.193 355.786 387.515 355.107 387.097 356.357Z" fill="#3F3D56"/>
<path d="M351.339 354.383C350.654 355.117 349.814 355.688 348.881 356.056L348.468 356.254C348.41 356.275 348.362 356.315 348.328 356.366C348.32 356.401 348.32 356.437 348.328 356.472C348.336 356.507 348.351 356.54 348.373 356.568C348.717 357.101 349.225 357.506 349.821 357.723C350.416 357.94 351.066 357.956 351.671 357.769C351.939 357.702 352.187 357.572 352.395 357.391C352.737 356.985 352.933 356.475 352.952 355.943C353.088 355.395 353.065 354.82 352.884 354.284C352.26 352.877 352.031 353.515 351.339 354.383Z" fill="#FBBEBE"/>
<path d="M360.676 359.923C360.69 360.093 360.664 360.264 360.6 360.422C360.388 360.835 359.8 360.813 359.342 360.723C359.272 359.197 359.087 357.679 358.789 356.182C357.917 356.141 357.288 356.969 356.821 357.71L355.617 359.621C355.442 359.95 355.197 360.236 354.898 360.458C354.657 360.59 354.393 360.673 354.12 360.705C351.82 361.087 349.497 360.363 347.277 359.644C346.95 359.556 346.637 359.423 346.347 359.248C345.951 358.957 345.683 358.524 345.599 358.039C345.515 357.555 345.622 357.057 345.898 356.649C346.828 355.39 348.917 355.75 350.076 354.707C349.955 355.441 349.756 356.16 349.483 356.852C351.033 356.618 352.076 355.197 353.325 354.248C353.639 353.982 354.017 353.802 354.421 353.727C354.724 353.701 355.029 353.733 355.32 353.821C356.76 354.184 358.108 354.847 359.274 355.768C359.746 356.141 360.483 356.667 360.69 357.243C360.91 357.931 360.676 359.19 360.676 359.923Z" fill="#3F3D56"/>
<path d="M391.586 211.569C396.713 211.569 400.869 207.41 400.869 202.279C400.869 197.149 396.713 192.99 391.586 192.99C386.459 192.99 382.302 197.149 382.302 202.279C382.302 207.41 386.459 211.569 391.586 211.569Z" fill="#FBBEBE"/>
<path d="M409.874 257.126C409.836 258.902 409.584 260.667 409.123 262.382C408.684 264.513 408.117 266.615 407.425 268.677C406.89 270.175 406.22 271.676 406.225 273.264C406.225 273.925 406.333 274.658 405.928 275.179C405.568 275.545 405.114 275.805 404.616 275.93C404.368 275.996 404.138 276.12 403.946 276.291C403.754 276.462 403.605 276.675 403.511 276.915C403.089 276.284 402.773 275.588 402.576 274.855C401.771 272.385 401.022 269.902 400.33 267.405C400.266 267.261 400.239 267.104 400.25 266.947C400.261 266.791 400.31 266.639 400.393 266.506C400.507 266.406 400.64 266.331 400.784 266.285C401.244 266.097 401.666 265.826 402.028 265.485C402.198 265.334 402.338 265.152 402.442 264.95C402.572 264.628 402.632 264.281 402.617 263.934C402.617 262.742 402.617 261.555 402.585 260.364C402.567 259.263 402.609 258.163 402.711 257.068C402.711 256.852 402.752 256.506 402.788 256.137C402.855 255.431 402.99 254.613 403.372 254.338C403.942 253.956 405.65 254.469 406.297 254.559C407.411 254.712 408.544 254.891 409.631 255.103C409.789 255.766 409.87 256.445 409.874 257.126Z" fill="#3F3D56"/>
<path d="M372.39 212.679C372.031 213.399 371.168 213.745 370.503 214.199L368.225 215.764C368.073 215.901 367.894 216.006 367.7 216.073C367.507 216.139 367.301 216.166 367.097 216.151C366.912 216.082 366.742 215.977 366.598 215.842C366.453 215.707 366.337 215.544 366.257 215.364C366.258 215.352 366.258 215.34 366.257 215.328L365.785 214.536L363.538 210.768C363.289 210.431 363.143 210.028 363.12 209.608C363.12 209.415 363.188 209.235 363.206 209.042C363.212 208.499 363.055 207.966 362.756 207.513C362.577 207.176 362.217 206.897 362.226 206.519C362.209 206.023 362.295 205.528 362.478 205.067C362.714 204.64 363.052 204.278 363.462 204.015C363.673 203.862 363.889 203.718 364.113 203.565C364.233 203.484 364.365 203.423 364.504 203.385C364.877 203.309 365.246 203.619 365.623 203.633C367.245 204.721 367.87 206.78 369.146 208.264C369.865 209.109 369.937 209.757 370.75 210.512C370.88 210.629 371.006 210.755 371.128 210.885C371.288 211.061 371.424 211.257 371.532 211.47C371.68 211.856 372.574 212.311 372.39 212.679Z" fill="#3F3D56"/>
<path d="M388.324 211.573C388.993 212.99 389.514 214.545 389.321 216.101C389.282 216.523 389.148 216.93 388.93 217.293C388.283 218.286 386.926 218.466 385.744 218.525C385.495 218.504 385.245 218.533 385.007 218.61C384.769 218.687 384.55 218.811 384.36 218.974C384.203 219.204 384.125 219.479 384.141 219.758C384.156 220.036 384.263 220.301 384.446 220.512C384.826 220.918 385.297 221.226 385.821 221.411C387.69 222.234 389.707 222.913 391.738 222.724C392.682 222.634 393.599 222.36 394.538 222.221C395.562 222.11 396.591 222.053 397.62 222.05C398.842 222.005 400.06 221.883 401.278 221.762L404.504 221.443C404.68 221.445 404.852 221.383 404.985 221.267C405.223 220.989 404.917 220.579 404.621 220.368C402.909 219.1 400.73 218.228 399.755 216.321C399.305 215.422 399.166 214.352 398.833 213.381C398.501 212.41 397.971 211.533 397.764 210.544C397.654 209.676 397.604 208.801 397.616 207.927C397.627 207.045 397.306 206.191 396.717 205.535C396.075 204.937 395.144 204.784 394.273 204.748C392.125 204.653 389.838 205.166 388.315 206.681C387.906 207.09 387.555 207.58 387.133 207.949C386.71 208.318 386.135 208.426 386.414 208.911C386.692 209.397 387.241 209.698 387.537 210.125C387.837 210.586 388.1 211.07 388.324 211.573Z" fill="#FBBEBE"/>
<path d="M406.625 224.653C406.058 228.116 405.137 231.51 403.875 234.784C403.241 236.262 402.7 237.778 402.257 239.325C401.911 240.719 401.979 242.212 401.66 243.61C401.264 245.35 400.869 247.095 400.55 248.848C400.015 251.526 399.801 254.258 399.912 256.987C399.913 257.416 399.995 257.842 400.155 258.241C400.303 258.565 400.541 258.844 400.68 259.176C400.784 259.469 400.827 259.779 400.805 260.089C400.784 260.398 400.698 260.7 400.554 260.975C400.324 261.49 400.011 261.964 399.629 262.378C395.441 263.628 390.961 263.219 386.598 263.484C382.577 263.727 378.51 264.554 374.547 263.866C374.098 262.068 374.848 260.184 375.491 258.43C377.355 253.336 379.418 248.03 379.085 242.693C379.05 242.07 378.98 241.45 378.874 240.836C378.223 237.054 378.933 233.138 380.069 229.473C380.775 227.189 380.743 224.757 380.582 222.378C380.502 221.606 380.491 220.828 380.55 220.053C380.615 219.263 380.909 218.508 381.395 217.882C381.395 217.85 381.435 217.819 381.458 217.787C381.48 217.756 381.655 217.76 381.795 217.787C381.83 217.802 381.868 217.81 381.907 217.81C381.946 217.81 381.984 217.802 382.019 217.787L382.069 217.756C382.088 217.742 382.111 217.735 382.134 217.735C382.157 217.735 382.18 217.742 382.199 217.756C382.303 217.819 382.361 218.035 382.586 218.075C382.918 218.125 383.252 218.157 383.588 218.169C383.991 218.181 384.392 218.239 384.783 218.34H384.837C385.421 218.439 386.021 218.388 386.58 218.192C386.952 218.099 387.312 217.96 387.65 217.778C387.748 217.67 388.369 217.571 388.494 217.495C388.903 217.248 388.813 216.088 388.899 215.611C388.946 215.133 389.059 214.664 389.236 214.217C389.44 213.887 389.723 213.613 390.058 213.418C390.393 213.222 390.771 213.113 391.159 213.097C391.933 213.079 392.706 213.148 393.464 213.304C395.14 213.543 396.856 213.502 398.501 213.889C399.328 214.082 400.231 214.374 400.99 213.997C401.197 214.046 401.228 214.226 401.228 214.446C401.209 214.656 401.167 214.862 401.103 215.062C400.815 216.303 401.79 217.445 402.689 218.345C403.068 218.769 403.517 219.126 404.014 219.401C404.464 219.608 404.913 219.694 405.362 219.918C405.726 220.113 406.035 220.396 406.261 220.741C406.52 221.137 406.694 221.583 406.773 222.05C406.87 222.92 406.82 223.8 406.625 224.653Z" fill="#3F3D56"/>
<path opacity="0.1" d="M406.625 224.653C406.058 228.116 405.137 231.51 403.875 234.784C403.241 236.262 402.7 237.779 402.257 239.325C401.911 240.719 401.979 242.212 401.66 243.61C401.264 245.35 400.869 247.095 400.55 248.848C400.456 248.902 400.357 248.952 400.258 248.997C399.699 249.264 399.106 249.454 398.496 249.563C397.401 249.696 396.292 249.659 395.207 249.455L388.795 248.597C386.234 248.25 383.507 247.832 381.606 246.097C380.55 245.143 379.858 243.884 379.099 242.67C379.064 242.048 378.993 241.428 378.887 240.813C378.236 237.032 378.946 233.115 380.083 229.451C380.788 227.167 380.757 224.734 380.595 222.356C380.515 221.583 380.504 220.805 380.563 220.031C380.628 219.24 380.922 218.486 381.408 217.859C381.539 217.821 381.673 217.791 381.808 217.769C381.899 217.751 381.99 217.739 382.082 217.733H382.213C382.364 217.734 382.515 217.752 382.662 217.787C382.968 217.885 383.268 218 383.561 218.133H383.614C384 218.26 384.404 218.318 384.81 218.304C385.403 218.304 386.014 218.21 386.607 218.169C387.34 218.055 388.09 218.189 388.737 218.552C389.155 218.888 389.551 219.249 389.923 219.635C390.373 219.989 390.879 220.264 391.419 220.449C395.287 221.926 399.578 221.836 403.381 220.197C403.746 219.989 404.16 219.884 404.58 219.891C404.891 219.952 405.185 220.078 405.443 220.26C405.713 220.418 405.978 220.57 406.252 220.71C406.511 221.106 406.685 221.551 406.764 222.018C406.867 222.898 406.82 223.789 406.625 224.653Z" fill="black"/>
<path d="M410.539 221.677C408.749 221.13 407.03 220.375 405.416 219.428C405.157 219.247 404.863 219.122 404.554 219.06C404.132 219.055 403.717 219.16 403.349 219.365C399.549 221.004 395.259 221.094 391.393 219.617C390.852 219.43 390.347 219.155 389.896 218.803C389.523 218.419 389.127 218.057 388.71 217.72C387.232 216.762 385.187 217.886 383.534 217.27C383.24 217.139 382.94 217.023 382.635 216.924C381.327 216.596 379.997 217.9 378.712 217.504C378.234 218.804 377.881 220.147 377.656 221.515C377.474 223.085 377.376 224.664 377.364 226.245C377.364 227.194 377.319 228.142 377.364 229.091C377.523 229.117 377.674 229.176 377.809 229.263C377.943 229.351 378.058 229.465 378.146 229.599C378.205 229.756 378.229 229.924 378.217 230.091C378.204 230.258 378.156 230.42 378.074 230.566C377.135 232.981 376.183 235.422 374.758 237.585C375.762 238.183 376.694 238.896 377.535 239.707C379.108 241.371 379.881 243.704 381.579 245.242C383.493 246.973 386.221 247.396 388.768 247.738L395.18 248.597C396.266 248.8 397.377 248.838 398.474 248.709C399.083 248.598 399.673 248.406 400.231 248.138C400.595 247.985 400.927 247.766 401.211 247.49C401.447 247.221 401.643 246.918 401.79 246.591C402.298 245.575 402.761 244.536 403.188 243.484C403.336 243.111 403.561 242.675 403.965 242.643C406.346 240.494 408.593 238.291 410.975 236.142C411.932 235.348 412.79 234.442 413.531 233.444C414.713 231.695 413.639 229.217 413.531 227.104C413.518 226.563 413.45 226.025 413.329 225.499C412.943 223.965 412.035 222.131 410.539 221.677Z" fill="#6C63FF"/>
<path opacity="0.1" d="M372.39 212.679C372.031 213.399 371.168 213.745 370.503 214.199L368.225 215.764C368.073 215.901 367.894 216.006 367.7 216.073C367.507 216.139 367.301 216.166 367.097 216.151C366.912 216.082 366.742 215.977 366.598 215.842C366.453 215.707 366.337 215.544 366.257 215.364C366.257 215.26 366.257 215.148 366.257 215.04C366.24 214.676 366.288 214.312 366.401 213.965C366.624 213.457 366.97 213.012 367.407 212.67C368.253 211.869 369.259 211.256 370.359 210.872C370.531 210.805 370.717 210.786 370.898 210.818C370.968 210.836 371.035 210.865 371.096 210.903C371.257 211.079 371.393 211.275 371.501 211.488C371.68 211.856 372.574 212.311 372.39 212.679Z" fill="black"/>
<path d="M377.755 217.419C376.991 217.383 376.367 216.829 375.81 216.303L374.107 214.721C373.993 214.624 373.893 214.512 373.81 214.388C373.718 214.213 373.649 214.027 373.603 213.835C373.242 212.927 372.676 212.114 371.95 211.461C371.823 211.3 371.653 211.178 371.46 211.11C371.277 211.076 371.089 211.095 370.916 211.164C369.816 211.547 368.81 212.16 367.964 212.963C367.527 213.304 367.181 213.749 366.958 214.258C366.845 214.604 366.796 214.968 366.814 215.332C366.824 216.52 367.091 217.692 367.596 218.767C367.672 218.934 367.758 219.1 367.847 219.262C368.447 220.254 369.155 221.175 369.959 222.009L371.029 223.205C372.08 224.383 373.132 225.561 374.273 226.645C374.682 227.082 375.178 227.428 375.729 227.661C376.005 227.774 376.307 227.809 376.602 227.761C376.897 227.714 377.173 227.586 377.4 227.392C377.615 227.142 377.778 226.851 377.877 226.537C378.569 224.739 379.225 222.868 379.265 220.93C379.275 220.154 379.242 219.378 379.166 218.606C379.099 217.787 378.519 217.468 377.755 217.419Z" fill="#6C63FF"/>
<path d="M404.985 280.368C404.959 284.891 404.638 289.408 404.023 293.889C403.934 294.613 403.835 295.337 403.785 296.06C403.637 298.16 403.88 300.269 403.682 302.355C403.579 303.484 403.345 304.604 403.147 305.705C402.269 310.622 402.012 315.63 402.383 320.611C403.003 328.898 401.103 337.189 401.965 345.453C402.07 347.06 401.981 348.674 401.7 350.26C401.54 351.244 401.307 352.215 401.004 353.165C400.348 355.416 399.689 357.664 399.027 359.909C398.949 360.251 398.795 360.57 398.577 360.844C398.348 361.043 398.079 361.19 397.789 361.276C397.498 361.362 397.193 361.385 396.892 361.344C394.3 361.263 391.86 360.143 389.505 359.05C389.235 358.944 388.984 358.791 388.764 358.601C388.274 358.093 388.315 357.292 388.099 356.622C387.883 355.952 387.299 355.323 386.967 354.635C386.693 353.984 386.528 353.293 386.477 352.589C386.177 350.287 385.974 347.976 385.866 345.656C385.695 342.391 387.852 339.388 388.562 336.213C389.91 329.972 388.768 323.282 391.163 317.36C391.918 315.489 390.822 313.223 390.714 311.209C390.675 309.909 390.507 308.617 390.211 307.351C389.762 305.66 388.813 304.068 388.746 302.315C388.697 301.047 389.105 299.81 389.317 298.56C389.597 296.721 389.571 294.848 389.24 293.016C389.002 291.506 388.638 289.995 388.274 288.52L388.193 288.686C387.099 290.828 386.157 293.044 385.376 295.319C385.017 296.42 384.702 297.544 384.253 298.614C383.884 299.514 383.43 300.336 382.986 301.182C381.39 304.163 380.001 307.25 378.829 310.422C378.272 311.978 377.782 313.569 377.297 315.13L373.967 325.921C373.069 328.758 372.085 331.501 371.204 334.334C369.959 338.38 368.715 342.391 367.268 346.348C365.92 350.103 364.316 353.992 364.796 357.958C363.558 358.54 362.197 358.817 360.829 358.763C358.513 358.558 356.241 358.006 354.089 357.126C353.231 356.807 352.341 356.447 351.761 355.741C350.764 354.523 351.011 352.737 351.312 351.186C351.425 350.487 351.606 349.8 351.851 349.136C352.193 348.309 352.75 347.576 353.1 346.757C353.806 345.188 353.851 343.412 354.129 341.708C354.408 340.004 355.028 338.205 356.484 337.279C356.731 334.284 357.962 331.33 358.641 328.403C359.153 326.186 359.324 323.907 359.728 321.658C360.132 319.41 360.784 317.162 362.141 315.341C362.034 313.463 362.457 311.593 363.363 309.945C363.582 309.583 363.761 309.199 363.898 308.799C363.982 308.408 364.03 308.011 364.042 307.612C364.19 306.049 364.858 304.582 365.938 303.443C365.488 301.802 366.113 300.089 366.675 298.497C367.382 296.466 367.702 294.32 367.618 292.171C367.549 291.571 367.577 290.963 367.704 290.372C367.829 289.923 368.077 289.541 368.22 289.109C368.349 288.58 368.416 288.039 368.423 287.495C368.598 285.062 369.582 282.769 370.669 280.597C371.316 279.329 370.768 277.607 370.903 276.195C371.137 273.848 371.393 271.42 372.556 269.374C372.772 268.988 373.006 268.619 373.199 268.219C373.433 267.647 373.56 267.038 373.572 266.42C373.612 265.391 373.756 264.536 373.388 263.578C375.792 261.578 379.072 261.016 382.199 260.881C385.327 260.746 388.49 261.029 391.55 260.364C392.449 260.161 393.347 259.882 394.295 259.748C396.448 259.433 398.631 259.923 400.757 260.409C400.608 261.757 401.103 263.052 401.655 264.307C403.813 269.388 404.945 274.847 404.985 280.368Z" fill="#33313F"/>
<path opacity="0.1" d="M394.403 281.398L389.24 293.016C389.002 291.506 388.638 289.995 388.274 288.52L388.193 288.686V288.444L391.006 282.252L394.403 281.398Z" fill="black"/>
<path opacity="0.1" d="M409.874 257.126C409.576 257.349 409.22 257.482 408.849 257.508C408.28 257.528 407.712 257.451 407.169 257.279L403.125 256.267C402.998 256.236 402.874 256.192 402.756 256.137C402.824 255.431 402.958 254.613 403.34 254.338C403.911 253.956 405.618 254.469 406.265 254.559C407.38 254.712 408.512 254.891 409.599 255.103C409.768 255.764 409.86 256.443 409.874 257.126Z" fill="black"/>
<path d="M413.293 230.373C413.378 230.746 413.5 231.115 413.572 231.492C413.693 232.419 413.661 233.359 413.477 234.275L413.109 236.847L412.74 239.433L411.316 249.383L410.966 251.847L410.471 255.287C410.448 255.573 410.375 255.853 410.256 256.114C410.108 256.359 409.903 256.563 409.657 256.708C409.412 256.853 409.134 256.935 408.849 256.946C408.28 256.964 407.712 256.887 407.169 256.717L403.125 255.701C402.947 255.669 402.779 255.6 402.63 255.498C402.507 255.378 402.418 255.226 402.372 255.059C402.326 254.893 402.325 254.717 402.37 254.55C402.428 254.208 402.576 253.889 402.626 253.547C402.725 252.882 402.446 252.198 402.545 251.537C402.642 251.116 402.793 250.71 402.994 250.328C404.342 247.347 403.56 243.866 404.019 240.629C404.431 238.081 405.507 235.687 407.137 233.686C408.143 232.424 409.299 231.289 410.579 230.305C411.082 229.914 411.882 229.109 412.516 228.956C413.329 228.785 413.158 229.806 413.293 230.373Z" fill="#6C63FF"/>
<path d="M382.689 191.641C382.392 192.585 382.855 193.624 382.644 194.586C382.415 195.647 381.417 196.384 381.134 197.45C380.685 199.073 382.06 200.553 383.066 201.901C386.796 206.91 386.306 213.844 385.03 219.954C384.003 224.857 382.583 229.669 380.784 234.343C380.222 235.795 379.602 237.27 378.497 238.358C380.564 237.765 382.761 237.167 384.832 237.742C387.456 238.471 389.721 241.02 392.381 240.44C393.981 240.085 395.104 238.664 396.542 237.877C399.238 236.425 402.487 237.338 405.493 237.805C406.14 237.958 406.818 237.924 407.447 237.706C407.928 237.448 408.336 237.072 408.633 236.614C409.975 234.891 410.778 232.811 410.943 230.633C411.014 229.549 410.854 228.462 410.474 227.444C410.094 226.427 409.501 225.501 408.737 224.73C408.099 224.127 407.335 223.642 406.845 222.931C406.369 222.101 406.113 221.163 406.104 220.206C405.749 215.26 406.953 210.211 405.713 205.427C405.263 203.723 404.531 202.09 404.333 200.346C404.086 198.174 404.675 195.849 403.812 193.862C403.134 192.284 401.637 191.164 400.024 190.589C398.411 190.013 396.686 189.851 394.974 189.689C392.511 189.482 383.718 188.426 382.689 191.641Z" fill="#33313F"/>
<g opacity="0.1">
<path opacity="0.1" d="M385.03 219.954C384.008 224.837 382.596 229.629 380.806 234.284C381.116 233.668 381.377 233.021 381.624 232.378C383.425 227.704 384.845 222.893 385.87 217.99C387.151 211.874 387.641 204.95 383.911 199.937C383.012 198.74 381.858 197.446 381.898 196.043C381.566 196.467 381.308 196.944 381.134 197.455C380.685 199.078 382.06 200.557 383.066 201.906C386.796 206.91 386.306 213.844 385.03 219.954Z" fill="black"/>
<path opacity="0.1" d="M382.698 194.132C383.058 193.684 383.327 193.169 383.489 192.616C383.558 191.948 383.54 191.274 383.435 190.611C383.089 190.872 382.829 191.23 382.689 191.641C382.424 192.437 382.729 193.3 382.698 194.132Z" fill="black"/>
<path opacity="0.1" d="M409.478 234.635C409.181 235.092 408.773 235.466 408.292 235.723C407.664 235.945 406.985 235.98 406.337 235.822C403.331 235.373 400.047 234.446 397.387 235.899C395.944 236.681 394.825 238.102 393.221 238.462C390.566 239.055 388.301 236.506 385.677 235.764C383.817 235.247 381.858 235.674 379.984 236.213C379.612 237.008 379.109 237.734 378.497 238.363C380.564 237.769 382.761 237.171 384.832 237.747C387.456 238.475 389.721 241.025 392.381 240.445C393.981 240.089 395.104 238.668 396.542 237.882C399.238 236.429 402.487 237.342 405.493 237.81C406.14 237.963 406.818 237.928 407.447 237.711C407.928 237.452 408.336 237.076 408.633 236.618C409.448 235.543 410.076 234.34 410.494 233.057C410.193 233.607 409.854 234.134 409.478 234.635Z" fill="black"/>
</g>
</g>
<defs>
<linearGradient id="paint0_linear" x1="345.358" y1="275.368" x2="414.106" y2="275.368" gradientUnits="userSpaceOnUse">
<stop stop-color="#808080" stop-opacity="0.25"/>
<stop offset="0.54" stop-color="#808080" stop-opacity="0.12"/>
<stop offset="1" stop-color="#808080" stop-opacity="0.1"/>
</linearGradient>
<clipPath id="clip0">
<rect width="524" height="362" fill="white"/>
</clipPath>
</defs>
</svg>
