<svg width="21" height="21" viewBox="0 0 21 21" fill="none" xmlns="http://www.w3.org/2000/svg">
<path d="M17.2223 9.15162H16.9135V6.4157C16.9135 2.87945 14.0384 0 10.4978 0C6.96151 0 4.08206 2.8751 4.08206 6.4157C4.08206 6.74192 4.34304 7.0029 4.66926 7.0029C4.99548 7.0029 5.25646 6.74192 5.25646 6.4157C5.25646 3.52755 7.60526 1.1744 10.4978 1.1744C13.3859 1.1744 15.7391 3.5232 15.7391 6.4157V9.15162H3.77759C3.15124 9.15162 2.64233 9.66052 2.64233 10.2869V17.5986C2.64233 19.4733 4.16905 21 6.04374 21H14.9561C16.8308 21 18.3575 19.4733 18.3575 17.5986V10.2869C18.3575 9.66052 17.8486 9.15162 17.2223 9.15162ZM17.1831 17.5986C17.1831 18.8252 16.1871 19.8256 14.9561 19.8256H6.04809C4.8215 19.8256 3.82108 18.8295 3.82108 17.5986V10.326H17.1831V17.5986Z" fill="#63617F"/>
<path d="M10.5021 17.3594C11.7156 17.3594 12.6987 16.372 12.6987 15.1628C12.6987 13.9493 11.7113 12.9662 10.5021 12.9662C9.28856 12.9662 8.30554 13.9536 8.30554 15.1628C8.30554 16.372 9.28856 17.3594 10.5021 17.3594ZM10.5021 14.1363C11.0676 14.1363 11.5243 14.5974 11.5243 15.1585C11.5243 15.7196 11.0676 16.185 10.5021 16.185C9.93665 16.185 9.47994 15.7239 9.47994 15.1628C9.47994 14.6017 9.93665 14.1363 10.5021 14.1363Z" fill="#63617F"/>
</svg>
