<svg width="18" height="18" viewBox="0 0 18 18" fill="none" xmlns="http://www.w3.org/2000/svg">
<path d="M4.14956 16.8865C5.06897 17.5613 5.97094 17.901 6.84028 17.901C7.05685 17.901 7.27116 17.8799 7.4835 17.8375C8.99944 17.5359 9.79425 16.2498 9.79903 16.2371L14.2771 10.1408C14.4627 9.88848 14.4084 9.53298 14.1556 9.34735C13.9028 9.16173 13.5481 9.21629 13.3622 9.46914L8.85628 15.6074C8.85094 15.6161 8.27691 16.5226 7.26188 16.7245C6.52275 16.8728 5.7015 16.6182 4.82119 15.9716C2.241 14.0769 3.58678 12.0729 3.74934 11.8496L11.1594 1.75304C11.1628 1.74854 11.4775 1.31513 12.0504 1.21585C12.575 1.12445 13.178 1.3261 13.858 1.82532C14.123 2.0087 14.8357 2.63673 14.951 3.3272C15.0072 3.66301 14.9183 3.98448 14.679 4.31016L8.05894 13.3237C8.05613 13.3276 7.76025 13.7264 7.32403 13.7987C7.04841 13.8431 6.76435 13.7534 6.45075 13.5234C5.51925 12.8388 6.00272 12.0097 6.09778 11.8668L9.78722 6.84338C9.97256 6.5911 9.91856 6.2356 9.66572 6.04998C9.41288 5.86435 9.05766 5.91835 8.87203 6.17176L5.17388 11.207C4.65863 11.9489 4.39481 13.4215 5.778 14.438C6.3436 14.8531 6.92494 15.0137 7.50938 14.9184C8.4105 14.7693 8.93278 14.0544 8.98116 13.9843L15.5936 4.98207C16.0189 4.40298 16.1792 3.78085 16.0687 3.13341C15.8462 1.82448 14.5547 0.927289 14.5153 0.900289C13.5911 0.221914 12.697 -0.0475233 11.8555 0.0973204C10.8107 0.279008 10.2758 1.03332 10.2313 1.09998L2.83725 11.1746C2.80041 11.2239 1.93697 12.4031 2.16759 13.9486C2.33241 15.0531 2.99925 16.0417 4.14956 16.8865Z" fill="#A9BACE"/>
</svg>
