<svg width="21" height="21" viewBox="0 0 21 21" fill="none" xmlns="http://www.w3.org/2000/svg">
<path d="M10.4655 11.7242C13.569 11.7242 16.0862 9.2069 16.0862 6.10347C16.0862 3.00004 13.569 0.5 10.4655 0.5C7.36211 0.5 4.84485 3.01726 4.84485 6.10347C4.84485 9.18968 7.36207 11.7242 10.4655 11.7242ZM10.4655 1.96552C12.7414 1.96552 14.6035 3.82758 14.6035 6.10347C14.6035 8.37935 12.7414 10.2414 10.4655 10.2414C8.18969 10.2414 6.32759 8.37932 6.32759 6.10343C6.32759 3.82754 8.18965 1.96552 10.4655 1.96552Z" fill="#63617F"/>
<path d="M0.741372 20.5H20.2586C20.6724 20.5 21 20.1724 21 19.7587C21 15.8793 17.8448 12.7069 13.9483 12.7069H7.05173C3.17242 12.7069 0 15.8621 0 19.7587C0 20.1724 0.327581 20.5 0.741372 20.5ZM7.05173 14.1897H13.9483C16.7758 14.1897 19.1034 16.2931 19.4655 19.0172H1.53448C1.89653 16.3104 4.22415 14.1897 7.05173 14.1897Z" fill="#63617F"/>
</svg>
